<svg width="29" height="28" viewBox="0 0 29 28" fill="none" xmlns="http://www.w3.org/2000/svg">
<path d="M21.2071 10.7071C21.5976 10.3166 21.5976 9.68342 21.2071 9.29289C20.8166 8.90237 20.1834 8.90237 19.7929 9.29289L13 16.0858L9.70711 12.7929C9.31658 12.4024 8.68342 12.4024 8.29289 12.7929C7.90237 13.1834 7.90237 13.8166 8.29289 14.2071L12.2929 18.2071C12.6834 18.5976 13.3166 18.5976 13.7071 18.2071L21.2071 10.7071ZM14.5 0C6.76801 0 0.5 6.26801 0.5 14C0.5 21.732 6.76801 28 14.5 28C22.232 28 28.5 21.732 28.5 14C28.5 6.26801 22.232 0 14.5 0ZM2.5 14C2.5 7.37258 7.87258 2 14.5 2C21.1274 2 26.5 7.37258 26.5 14C26.5 20.6274 21.1274 26 14.5 26C7.87258 26 2.5 20.6274 2.5 14Z" fill="#34C759"/>
</svg>
